# xmcd
#
# Track frame offsets:
#  150
#  24918
#  40459
#  55170
#  75998
#  88286
#  107767
#  119507
#  135728
#  175851
#  194862
#
# Disc length: 3215 seconds
#
# Revision: 0
# Processed by: cddbd v1.5.2PL0 Copyright (c) Steve Scherf et al.
# Submitted via: AltoMP3_Maker 3.0
#
DISCID=960c8d0b
DTITLE=Cedric Watson and Bijou Creole - Creole Moon - Live from the Blue Moon
DYEAR=1900
DGENRE=
TTITLE0=Afro Zydeco
TTITLE1=Old Time Two Step
TTITLE2=The Corner Post
TTITLE3=Pa Janvier
TTITLE4=Richard's Two Step
TTITLE5=Musicien avec un Coeur Casse
TTITLE6=Canray's Jig
TTITLE7=Jogue au Plombeau
TTITLE8=I'm on the Wonder
TTITLE9=Zydeco Coteau
TTITLE10=Jure
EXTD=
EXTT0=
EXTT1=
EXTT2=
EXTT3=
EXTT4=
EXTT5=
EXTT6=
EXTT7=
EXTT8=
EXTT9=
EXTT10=
PLAYORDER=
